<svg xmlns="http://www.w3.org/2000/svg" viewBox="0 0 600 380">
  <defs>
    <filter id="glow"><feGaussianBlur stdDeviation="3" result="b"/><feMerge><feMergeNode in="b"/><feMergeNode in="SourceGraphic"/></feMerge></filter>
    <linearGradient id="bg" x1="0%" y1="0%" x2="100%" y2="100%"><stop offset="0%" stop-color="#0a0800"/><stop offset="100%" stop-color="#1a1400"/></linearGradient>
    <linearGradient id="shine" x1="0%" y1="0%" x2="100%" y2="0%"><stop offset="0%" stop-color="#ff9500" stop-opacity="0"/><stop offset="50%" stop-color="#ff9500" stop-opacity="0.6"/><stop offset="100%" stop-color="#ff9500" stop-opacity="0"/></linearGradient>
  </defs>
  <rect width="600" height="380" fill="url(#bg)"/>
  <g opacity="0.08" stroke="#ff9500" stroke-width="0.5">
    <line x1="0" y1="50" x2="600" y2="50"/><line x1="0" y1="100" x2="600" y2="100"/><line x1="0" y1="150" x2="600" y2="150"/><line x1="0" y1="200" x2="600" y2="200"/><line x1="0" y1="250" x2="600" y2="250"/><line x1="0" y1="300" x2="600" y2="300"/><line x1="0" y1="350" x2="600" y2="350"/>
    <line x1="60" y1="0" x2="60" y2="380"/><line x1="120" y1="0" x2="120" y2="380"/><line x1="180" y1="0" x2="180" y2="380"/><line x1="240" y1="0" x2="240" y2="380"/><line x1="300" y1="0" x2="300" y2="380"/><line x1="360" y1="0" x2="360" y2="380"/><line x1="420" y1="0" x2="420" y2="380"/><line x1="480" y1="0" x2="480" y2="380"/><line x1="540" y1="0" x2="540" y2="380"/>
  </g>
  <rect x="8" y="8" width="584" height="364" fill="none" stroke="#ff9500" stroke-width="2" rx="10" filter="url(#glow)"/>
  <rect x="18" y="18" width="564" height="344" fill="none" stroke="#a855f7" stroke-width="0.8" stroke-dasharray="8,4" rx="7" opacity="0.7"/>
  <path d="M8,38 L8,8 L38,8" fill="none" stroke="#ff9500" stroke-width="3" filter="url(#glow)"/>
  <path d="M562,8 L592,8 L592,38" fill="none" stroke="#ff9500" stroke-width="3" filter="url(#glow)"/>
  <path d="M8,342 L8,372 L38,372" fill="none" stroke="#ff9500" stroke-width="3" filter="url(#glow)"/>
  <path d="M562,372 L592,372 L592,342" fill="none" stroke="#ff9500" stroke-width="3" filter="url(#glow)"/>
  <rect x="8" y="8" width="584" height="46" fill="rgba(255,149,0,0.06)" rx="10"/>
  <text x="300" y="38" text-anchor="middle" fill="#ff9500" font-family="monospace" font-size="11" letter-spacing="8" filter="url(#glow)">CERTIFICATE OF ACHIEVEMENT</text>
  <rect x="80" y="60" width="440" height="1" fill="url(#shine)"/>
  <circle cx="300" cy="145" r="55" fill="rgba(255,149,0,0.04)" stroke="#ff9500" stroke-width="1.5" filter="url(#glow)"/>
  <circle cx="300" cy="145" r="48" fill="none" stroke="#a855f7" stroke-width="0.8" stroke-dasharray="4,3"/>
  <circle cx="300" cy="145" r="40" fill="rgba(255,149,0,0.08)"/>
  <text x="300" y="138" text-anchor="middle" font-size="28">☁</text>
  <text x="300" y="162" text-anchor="middle" fill="#ff9500" font-family="monospace" font-size="8" letter-spacing="4" filter="url(#glow)">VERIFIED</text>
  <text x="300" y="225" text-anchor="middle" fill="white" font-family="monospace" font-size="22" font-weight="bold" filter="url(#glow)">AWS SECURITY</text>
  <text x="300" y="248" text-anchor="middle" fill="#e8f4ff" font-family="monospace" font-size="12" letter-spacing="2">Security Specialty</text>
  <rect x="150" y="262" width="300" height="1" fill="url(#shine)"/>
  <text x="300" y="284" text-anchor="middle" fill="#7a9fbf" font-family="monospace" font-size="9" letter-spacing="4">THIS CERTIFIES THAT</text>
  <text x="300" y="308" text-anchor="middle" fill="#ff9500" font-family="monospace" font-size="22" font-weight="bold" filter="url(#glow)">PREET</text>
  <rect x="8" y="342" width="584" height="30" fill="rgba(255,149,0,0.04)" rx="10"/>
  <text x="150" y="362" text-anchor="middle" fill="#7a9fbf" font-family="monospace" font-size="9">ISSUED BY: AMAZON WEB SERVICES</text>
  <text x="450" y="362" text-anchor="middle" fill="#a855f7" font-family="monospace" font-size="9">YEAR: 2024</text>
</svg>
